<svg xmlns="http://www.w3.org/2000/svg" viewBox="0 0 839.8 538.44"><defs><style>.cls-1{fill:#fffdd7;}.cls-1,.cls-3{stroke:#000;stroke-width:4.44px;}.cls-1,.cls-2,.cls-3{stroke-linecap:round;stroke-linejoin:round;}.cls-2{fill:#e8e5c4;stroke:#adaa93;stroke-width:8.74px;}.cls-3{fill:#9e9e9e;}</style></defs><g id="圖層_2" data-name="圖層 2"><g id="tableManner"><g id="plate"><ellipse class="cls-1" cx="459.83" cy="269.22" rx="288.06" ry="267"/><ellipse class="cls-2" cx="460.07" cy="264.58" rx="224.4" ry="208"/></g><path id="fork" class="cls-3" d="M145.92,96.16H140.6A10.68,10.68,0,0,0,130,106.8V219.46H92.7V91.81A11.22,11.22,0,0,0,81.51,80.63H77.27A11.22,11.22,0,0,0,66.08,91.81V219.46H28.83V106.8A10.68,10.68,0,0,0,18.18,96.16H12.86A10.67,10.67,0,0,0,2.22,106.8V235.42a10.68,10.68,0,0,0,10.64,10.65H66.53V514.4a13.31,13.31,0,0,0,26.61,0V246.07h52.78a10.68,10.68,0,0,0,10.64-10.65V106.8A10.67,10.67,0,0,0,145.92,96.16Z"/><path id="knife" class="cls-3" d="M824.28,516.84h0A13.34,13.34,0,0,1,811,503.53V354.07l-46.57-18.63L811,82.19a13.34,13.34,0,0,1,13.3-13.31h8a5.35,5.35,0,0,1,5.33,5.33V503.53A13.35,13.35,0,0,1,824.28,516.84Z"/></g></g></svg>